<svg width="28" height="28" viewBox="0 0 28 28" fill="none" xmlns="http://www.w3.org/2000/svg">
<rect width="28" height="28" rx="14" fill="#D6D2C4"/>
<path d="M20.5527 6H7.44733C6.648 6 6 6.648 6 7.44733V20.5526C6 21.352 6.648 22 7.44733 22H20.5526C21.352 22 22 21.352 22 20.5526V7.44733C22 6.648 21.352 6 20.5527 6ZM10.9511 19.8155C10.9511 20.0481 10.7625 20.2366 10.5299 20.2366H8.73696C8.50434 20.2366 8.31577 20.0481 8.31577 19.8155V12.2996C8.31577 12.067 8.50434 11.8784 8.73696 11.8784H10.5299C10.7625 11.8784 10.9511 12.067 10.9511 12.2996V19.8155ZM9.63342 11.1699C8.69273 11.1699 7.93014 10.4073 7.93014 9.46664C7.93014 8.52595 8.69273 7.76335 9.63342 7.76335C10.5741 7.76335 11.3367 8.52595 11.3367 9.46664C11.3367 10.4073 10.5742 11.1699 9.63342 11.1699ZM20.3208 19.8494C20.3208 20.0632 20.1474 20.2366 19.9336 20.2366H18.0096C17.7958 20.2366 17.6224 20.0632 17.6224 19.8494V16.324C17.6224 15.7981 17.7766 14.0195 16.248 14.0195C15.0623 14.0195 14.8218 15.2369 14.7735 15.7832V19.8494C14.7735 20.0632 14.6001 20.2366 14.3862 20.2366H12.5254C12.3116 20.2366 12.1382 20.0632 12.1382 19.8494V12.2657C12.1382 12.0518 12.3116 11.8784 12.5254 11.8784H14.3862C14.6001 11.8784 14.7735 12.0518 14.7735 12.2657V12.9214C15.2132 12.2616 15.8666 11.7523 17.2578 11.7523C20.3385 11.7523 20.3208 14.6305 20.3208 16.2119V19.8494Z" fill="#003A40"/>
</svg>
