<svg width="44" height="44" viewBox="0 0 44 44" fill="none" xmlns="http://www.w3.org/2000/svg">
<g clip-path="url(#clip0_550_43)">
<path d="M16.4998 27.5C15.4873 27.5 14.6665 28.3208 14.6665 29.3333C14.6665 30.3459 15.4873 31.1667 16.4998 31.1667C17.5124 31.1667 18.3332 30.3459 18.3332 29.3333C18.3332 28.3208 17.5124 27.5 16.4998 27.5Z" fill="#003A40" fill-opacity="0.8"/>
<path d="M25.6665 29.3333C25.6665 28.3208 26.4873 27.5 27.4998 27.5C28.5124 27.5 29.3332 28.3208 29.3332 29.3333C29.3332 30.3459 28.5124 31.1667 27.4998 31.1667C26.4873 31.1667 25.6665 30.3459 25.6665 29.3333Z" fill="#003A40" fill-opacity="0.8"/>
<path fill-rule="evenodd" clip-rule="evenodd" d="M22 1.83334C19.9749 1.83334 18.3333 3.47497 18.3333 5.50001C18.3333 6.85719 19.0707 8.04217 20.1667 8.67615V12.8333H11C7.96244 12.8333 5.5 15.2958 5.5 18.3333V36.6667C5.5 39.7043 7.96244 42.1667 11 42.1667H33C36.0377 42.1667 38.5 39.7043 38.5 36.6667V18.3333C38.5 15.2958 36.0377 12.8333 33 12.8333H23.8333V8.67615C24.9293 8.04217 25.6667 6.85719 25.6667 5.50001C25.6667 3.47497 24.0251 1.83334 22 1.83334ZM9.16667 18.3333C9.16667 17.3208 9.98749 16.5 11 16.5H13.5336L16.1868 21.8064C16.8079 23.0487 18.0776 23.8333 19.4663 23.8333H24.5337C25.9224 23.8333 27.192 23.0487 27.8131 21.8064L30.4663 16.5H33C34.0126 16.5 34.8333 17.3208 34.8333 18.3333V36.6667C34.8333 37.6792 34.0126 38.5 33 38.5H11C9.98749 38.5 9.16667 37.6792 9.16667 36.6667V18.3333ZM24.5337 20.1667L26.367 16.5H17.6331L19.4663 20.1667H24.5337Z" fill="#003A40" fill-opacity="0.8"/>
<path d="M1.83333 25.6667C0.820811 25.6667 0 26.4874 0 27.5V31.1667C0 32.1792 0.820811 33 1.83333 33C2.84585 33 3.66667 32.1792 3.66667 31.1667V27.5C3.66667 26.4874 2.84585 25.6667 1.83333 25.6667Z" fill="#003A40" fill-opacity="0.8"/>
<path d="M40.3335 27.5C40.3335 26.4874 41.1543 25.6667 42.1668 25.6667C43.1794 25.6667 44.0002 26.4874 44.0002 27.5V31.1667C44.0002 32.1792 43.1794 33 42.1668 33C41.1543 33 40.3335 32.1792 40.3335 31.1667V27.5Z" fill="#003A40" fill-opacity="0.8"/>
</g>
<defs>
<clipPath id="clip0_550_43">
<rect width="44" height="44" fill="white"/>
</clipPath>
</defs>
</svg>
