<svg width="44" height="44" viewBox="0 0 44 44" fill="none" xmlns="http://www.w3.org/2000/svg">
<path d="M41.1032 3.66678H2.89678C1.29946 3.66678 0 4.96615 0 6.56338V37.4364C0 39.0337 1.29946 40.3332 2.89678 40.3332H41.1033C42.7005 40.3332 44 39.0337 44 37.4364V6.56338C43.9999 4.96615 42.7005 3.66678 41.1032 3.66678ZM42.1665 37.4365C42.1665 38.0228 41.6895 38.4998 41.1032 38.4998H2.89678C2.31043 38.4998 1.83347 38.0229 1.83347 37.4365V6.56338C1.83347 5.97712 2.31043 5.50017 2.89678 5.50017H41.1033C41.6896 5.50017 42.1665 5.97712 42.1665 6.56338V37.4365Z" fill="#003A40" fill-opacity="0.8"/>
<path d="M39.4163 7.33337H4.5832C4.07685 7.33337 3.6665 7.7439 3.6665 8.25007V33.5297C3.6665 34.0359 4.07694 34.4463 4.5832 34.4463H39.4163C39.9226 34.4463 40.333 34.0358 40.333 33.5297V8.25007C40.333 7.74372 39.9226 7.33337 39.4163 7.33337ZM38.4995 32.6128H5.49989V9.16676H38.4995V32.6128Z" fill="#003A40" fill-opacity="0.8"/>
<path d="M17.7828 25.0801C18.1743 25.756 18.9033 26.176 19.6848 26.176C20.0699 26.176 20.4502 26.0738 20.7833 25.8806L23.4574 24.3365C23.476 24.3257 23.4942 24.3144 23.512 24.3023L26.1055 22.805C26.4501 22.6121 26.7365 22.3284 26.9343 21.9844C27.2262 21.4764 27.3028 20.8852 27.15 20.3194C26.9973 19.7535 26.6333 19.2811 26.1268 18.99L23.5438 17.4987C23.515 17.4804 23.4861 17.4625 23.4571 17.4459L20.8833 15.96C20.5262 15.727 20.1125 15.604 19.6837 15.604C18.4707 15.604 17.4839 16.5907 17.4839 17.8034V23.9789C17.4839 24.0102 17.4855 24.0412 17.4885 24.0716C17.5037 24.425 17.6045 24.7716 17.7828 25.0801ZM19.3174 17.8034C19.3174 17.6016 19.4818 17.4375 19.6838 17.4375C19.7764 17.4375 19.845 17.4707 19.8863 17.4988C19.9044 17.5111 19.923 17.5227 19.9419 17.5336L22.542 19.0345C22.5489 19.0387 22.5556 19.0431 22.5623 19.0475C22.5768 19.0571 22.5914 19.0661 22.6064 19.0748L25.2116 20.5787C25.3243 20.6435 25.3655 20.7436 25.38 20.7974C25.3946 20.8513 25.4093 20.9584 25.3447 21.0707C25.3114 21.1288 25.2654 21.1744 25.2083 21.2062C25.2038 21.2087 25.1991 21.2113 25.1947 21.2139L22.5394 22.7469C22.5208 22.7577 22.5025 22.7691 22.4848 22.7811L19.8654 24.2937C19.8093 24.3262 19.7485 24.3427 19.6848 24.3427C19.553 24.3427 19.435 24.2749 19.3695 24.1617C19.3368 24.105 19.3201 24.0435 19.3201 23.9791C19.3201 23.9554 19.3192 23.9319 19.3174 23.9086V17.8034Z" fill="#003A40" fill-opacity="0.8"/>
<path d="M8.25068 21.3295C8.75702 21.3295 9.16737 20.919 9.16737 20.4128V20.3908C9.16737 19.8845 8.75693 19.4741 8.25068 19.4741C7.74442 19.4741 7.33398 19.8846 7.33398 20.3908V20.4128C7.3339 20.9191 7.74434 21.3295 8.25068 21.3295Z" fill="#003A40" fill-opacity="0.8"/>
<path d="M8.25019 30.7799C8.75653 30.7799 9.16688 30.3694 9.16688 29.8632V23.0462C9.16688 22.5398 8.75645 22.1295 8.25019 22.1295C7.74385 22.1295 7.3335 22.5399 7.3335 23.0462V29.8632C7.3335 30.3695 7.74393 30.7799 8.25019 30.7799Z" fill="#003A40" fill-opacity="0.8"/>
<path d="M35.7502 20.4501C35.2439 20.4501 34.8335 20.8606 34.8335 21.3668V21.3888C34.8335 21.895 35.244 22.3055 35.7502 22.3055C36.2564 22.3055 36.6669 21.8949 36.6669 21.3888V21.3668C36.6669 20.8605 36.2564 20.4501 35.7502 20.4501Z" fill="#003A40" fill-opacity="0.8"/>
<path d="M35.7497 19.6503C36.256 19.6503 36.6664 19.2397 36.6664 18.7336V11.9165C36.6664 11.4103 36.2559 10.9998 35.7497 10.9998C35.2435 10.9998 34.833 11.4103 34.833 11.9165V18.7336C34.8329 19.2398 35.2434 19.6503 35.7497 19.6503Z" fill="#003A40" fill-opacity="0.8"/>
<path d="M21.9998 35.327C21.3688 35.327 20.854 35.8418 20.854 36.4729C20.854 37.1039 21.3688 37.6186 21.9998 37.6186C22.631 37.6186 23.1456 37.1039 23.1456 36.4729C23.1457 35.8418 22.6309 35.327 21.9998 35.327Z" fill="#003A40" fill-opacity="0.8"/>
</svg>
