<svg width="44" height="26" viewBox="0 0 44 26" fill="none" xmlns="http://www.w3.org/2000/svg">
<path d="M6.84813 15.6022C6.93978 15.6402 7.03463 15.6582 7.12803 15.6582C7.41475 15.6582 7.68694 15.4883 7.80374 15.207L8.7726 12.8713H12.4229L13.421 15.2135C13.5792 15.5851 14.0086 15.7579 14.3803 15.5996C14.7518 15.4413 14.9246 15.0118 14.7662 14.6403L13.5816 11.8601C13.5803 11.8569 13.579 11.8538 13.5775 11.8506L11.2369 6.35726C11.1219 6.08751 10.8571 5.9127 10.5643 5.9127C10.5631 5.9127 10.5619 5.9127 10.5608 5.9127C10.2665 5.91417 10.0018 6.09189 9.88887 6.3637L7.61197 11.8528C7.6111 11.855 7.61022 11.8571 7.60934 11.8592L6.45291 14.6466C6.29829 15.0196 6.47523 15.4474 6.84813 15.6022ZM10.5733 8.53033L11.7998 11.4088H9.37919L10.5733 8.53033Z" fill="#003A40" fill-opacity="0.8"/>
<path d="M10.6071 8.96661e-05C10.2032 0.00213697 9.87766 0.331266 9.87971 0.735072C9.88176 1.13761 10.2087 1.46245 10.6108 1.46245C10.6122 1.46245 10.6134 1.46245 10.6147 1.46245C13.1311 1.45017 15.4767 2.41259 17.2121 4.17474C18.9047 5.8937 19.8095 8.1741 19.7596 10.5959C19.697 13.6289 18.3011 16.3436 15.9297 18.0439C15.9039 18.0624 15.8796 18.0823 15.8569 18.1035L15.7532 18.1746C15.7273 18.1924 15.7016 18.2103 15.668 18.2327L8.78284 22.9397V20.1438C8.78284 19.8128 8.56056 19.5232 8.24089 19.4375C4.24982 18.3682 1.46236 14.7385 1.46236 10.611C1.46236 7.3973 3.10752 4.47803 5.86309 2.80188C6.20811 2.59208 6.31769 2.14225 6.10789 1.79723C5.89799 1.45212 5.44817 1.34254 5.10315 1.55253C1.9077 3.49611 0 6.88245 0 10.611C0 15.2101 2.98263 19.2762 7.32038 20.6894V24.3252C7.32038 24.5964 7.47052 24.8453 7.71035 24.9719C7.81749 25.0284 7.93467 25.0564 8.05147 25.0564C8.19614 25.0564 8.34033 25.0135 8.46414 24.9288L16.4858 19.4449C16.5185 19.4231 16.5509 19.4007 16.5834 19.3784L16.7822 19.2423C16.8195 19.2169 16.8537 19.1883 16.885 19.1574C19.5717 17.1821 21.1503 14.0802 21.2215 10.6261C21.2797 7.80666 20.2257 5.15111 18.254 3.14875C16.2396 1.103 13.5251 -0.0115117 10.6071 8.96661e-05Z" fill="#003A40" fill-opacity="0.8"/>
<path d="M33.3892 9.15527e-05C27.5383 9.15527e-05 22.7783 4.76008 22.7783 10.611C22.7783 13.9736 24.3971 17.1588 27.115 19.1574C27.1462 19.1884 27.1806 19.217 27.2179 19.2424L27.413 19.376C27.4466 19.3991 27.4799 19.4221 27.5069 19.44L35.5359 24.929C35.6598 25.0137 35.8039 25.0566 35.9485 25.0566C36.0653 25.0566 36.1825 25.0286 36.2897 24.972C36.5295 24.8455 36.6796 24.5966 36.6796 24.3254V20.144C36.6796 19.7402 36.3523 19.4128 35.9484 19.4128C35.5445 19.4128 35.2173 19.7402 35.2173 20.144V22.9399L28.3252 18.2282C28.2978 18.2099 28.2707 18.1912 28.2436 18.1725L28.1431 18.1036C28.1204 18.0825 28.0961 18.0626 28.0704 18.0441C25.6723 16.3246 24.2407 13.5459 24.2407 10.6111C24.2407 5.56652 28.3447 1.46255 33.3892 1.46255C38.4337 1.46255 42.5377 5.56652 42.5377 10.6111C42.5377 13.1632 41.5105 15.5303 39.6452 17.2761C39.3504 17.5521 39.335 18.0148 39.611 18.3096C39.8868 18.6043 40.3496 18.6198 40.6445 18.3438C42.777 16.3479 44.0001 13.5295 44.0001 10.6112C44.0001 4.76008 39.2401 9.15527e-05 33.3892 9.15527e-05Z" fill="#003A40" fill-opacity="0.8"/>
<path d="M28.4343 13.8443C28.0304 13.8443 27.7031 14.1717 27.7031 14.5755C27.7031 14.9793 28.0304 15.3067 28.4343 15.3067H34.6461C35.05 15.3067 35.3773 14.9793 35.3773 14.5755C35.3773 14.1717 35.05 13.8443 34.6461 13.8443H32.2714V13.1816H34.6461C35.05 13.1816 35.3773 12.8542 35.3773 12.4504C35.3773 12.0466 35.05 11.7192 34.6461 11.7192H32.2714V10.2391H33.4917L33.7274 10.7104C33.8554 10.9666 34.1137 11.1147 34.3819 11.1147C34.4918 11.1147 34.6033 11.0898 34.7084 11.0374C35.0695 10.8568 35.216 10.4176 35.0354 10.0564L34.0605 8.10663C33.88 7.74543 33.4409 7.599 33.0794 7.77965C32.7183 7.9602 32.5719 8.3994 32.7525 8.7606L32.7606 8.77678H29.9008L31.0037 6.96979H34.8097C35.2136 6.96979 35.5409 6.64242 35.5409 6.23861C35.5409 5.8348 35.2136 5.50743 34.8097 5.50743H28.6797C28.2758 5.50743 27.9485 5.8348 27.9485 6.23861C27.9485 6.64242 28.2758 6.96979 28.6797 6.96979H29.2906L27.9739 9.12707C27.8361 9.35276 27.8308 9.63519 27.9603 9.86585C28.0897 10.0964 28.3335 10.2392 28.5979 10.2392H30.8092V11.7193H28.4345C28.0306 11.7193 27.7033 12.0467 27.7033 12.4505C27.7033 12.8543 28.0306 13.1817 28.4345 13.1817H30.8092V13.8444H28.4343V13.8443Z" fill="#003A40" fill-opacity="0.8"/>
<path d="M36.5261 13.7538C36.93 13.7538 37.2573 13.4264 37.2573 13.0226V7.13767C37.2573 6.73387 36.93 6.40649 36.5261 6.40649C36.1222 6.40649 35.7949 6.73387 35.7949 7.13767V13.0226C35.7949 13.4264 36.1223 13.7538 36.5261 13.7538Z" fill="#003A40" fill-opacity="0.8"/>
<path d="M35.844 17.354H35.928C37.8975 17.354 39.4999 15.7517 39.4999 13.7822V6.28883C39.4999 5.88502 39.1726 5.55765 38.7687 5.55765C38.3648 5.55765 38.0375 5.88502 38.0375 6.28883V13.7822C38.0375 14.9453 37.0912 15.8917 35.928 15.8917H35.844C35.4401 15.8917 35.1128 16.219 35.1128 16.6228C35.1128 17.0267 35.4402 17.354 35.844 17.354Z" fill="#003A40" fill-opacity="0.8"/>
</svg>
