<svg width="28" height="28" viewBox="0 0 28 28" fill="none" xmlns="http://www.w3.org/2000/svg">
<rect width="28" height="28" rx="14" fill="#D6D2C4"/>
<g clip-path="url(#clip0_559_737)">
<path fill-rule="evenodd" clip-rule="evenodd" d="M14 19C16.7614 19 19 16.7614 19 14C19 11.2386 16.7614 9 14 9C11.2386 9 9 11.2386 9 14C9 16.7614 11.2386 19 14 19ZM14 17.3333C15.8409 17.3333 17.3333 15.8409 17.3333 14C17.3333 12.159 15.8409 10.6667 14 10.6667C12.159 10.6667 10.6667 12.159 10.6667 14C10.6667 15.8409 12.159 17.3333 14 17.3333Z" fill="#003A40"/>
<path d="M19.0001 8.16666C18.5398 8.16666 18.1667 8.53976 18.1667 8.99999C18.1667 9.46022 18.5398 9.83332 19.0001 9.83332C19.4603 9.83332 19.8334 9.46022 19.8334 8.99999C19.8334 8.53976 19.4603 8.16666 19.0001 8.16666Z" fill="#003A40"/>
<path fill-rule="evenodd" clip-rule="evenodd" d="M5.37822 7.56336C4.83325 8.63292 4.83325 10.0331 4.83325 12.8333V15.1666C4.83325 17.9669 4.83325 19.3671 5.37822 20.4366C5.85759 21.3774 6.62249 22.1423 7.5633 22.6216C8.63286 23.1666 10.033 23.1666 12.8333 23.1666H15.1666C17.9668 23.1666 19.367 23.1666 20.4365 22.6216C21.3773 22.1423 22.1423 21.3774 22.6216 20.4366C23.1666 19.3671 23.1666 17.9669 23.1666 15.1666V12.8333C23.1666 10.0331 23.1666 8.63292 22.6216 7.56336C22.1423 6.62255 21.3773 5.85765 20.4365 5.37828C19.367 4.83331 17.9668 4.83331 15.1666 4.83331H12.8333C10.033 4.83331 8.63286 4.83331 7.5633 5.37828C6.62249 5.85765 5.85759 6.62255 5.37822 7.56336ZM15.1666 6.49998H12.8333C11.4056 6.49998 10.4351 6.50128 9.68499 6.56256C8.95429 6.62226 8.58062 6.73047 8.31995 6.86329C7.69274 7.18287 7.18281 7.6928 6.86323 8.32001C6.73041 8.58068 6.6222 8.95435 6.5625 9.68505C6.50122 10.4352 6.49992 11.4057 6.49992 12.8333V15.1666C6.49992 16.5943 6.50122 17.5647 6.5625 18.3149C6.6222 19.0456 6.73041 19.4193 6.86323 19.68C7.18281 20.3071 7.69274 20.8171 8.31995 21.1366C8.58062 21.2695 8.95429 21.3777 9.68499 21.4374C10.4351 21.4986 11.4056 21.5 12.8333 21.5H15.1666C16.5943 21.5 17.5647 21.4986 18.3148 21.4374C19.0456 21.3777 19.4193 21.2695 19.6799 21.1366C20.3071 20.8171 20.817 20.3071 21.1366 19.68C21.2694 19.4193 21.3777 19.0456 21.4373 18.3149C21.4986 17.5647 21.4999 16.5943 21.4999 15.1666V12.8333C21.4999 11.4057 21.4986 10.4352 21.4373 9.68505C21.3777 8.95435 21.2694 8.58068 21.1366 8.32001C20.817 7.6928 20.3071 7.18287 19.6799 6.86329C19.4193 6.73047 19.0456 6.62226 18.3148 6.56256C17.5647 6.50128 16.5943 6.49998 15.1666 6.49998Z" fill="#003A40"/>
</g>
<defs>
<clipPath id="clip0_559_737">
<rect width="20" height="20" fill="white" transform="translate(4 4)"/>
</clipPath>
</defs>
</svg>
