<svg width="44" height="44" viewBox="0 0 44 44" fill="none" xmlns="http://www.w3.org/2000/svg">
<path d="M17.4165 22.7333L20.0356 25.6666L26.5832 18.3333" stroke="#003A40" stroke-opacity="0.8" stroke-width="3" stroke-linecap="round" stroke-linejoin="round"/>
<path d="M5.5 19.0973C5.5 13.235 5.5 10.3038 6.19212 9.31774C6.88422 8.33165 9.64025 7.38825 15.1523 5.50144L16.2025 5.14198C19.0758 4.15843 20.5124 3.66666 22 3.66666C23.4876 3.66666 24.9242 4.15843 27.7976 5.14198L28.8477 5.50144C34.3598 7.38825 37.1158 8.33165 37.8079 9.31774C38.5 10.3038 38.5 13.235 38.5 19.0973C38.5 19.9826 38.5 20.9429 38.5 21.9842C38.5 26.5765 36.9659 30.1187 34.8333 32.8242M5.85354 25.6667C7.42548 33.5471 13.8901 37.607 18.1474 39.4667C19.47 40.0444 20.1313 40.3333 22 40.3333C23.8687 40.3333 24.53 40.0444 25.8526 39.4667C26.9126 39.0036 28.1094 38.4043 29.3333 37.6435" stroke="#003A40" stroke-opacity="0.8" stroke-width="3" stroke-linecap="round"/>
</svg>
