<svg width="41" height="40" viewBox="0 0 41 40" fill="none" xmlns="http://www.w3.org/2000/svg">
<rect width="40.02" height="40" rx="20" fill="#003A40"/>
<path d="M23.8988 20.9722L19.864 17.0347C19.3617 16.5486 18.9364 16.0098 18.588 15.4184C18.2396 14.8269 18.0654 14.1828 18.0654 13.4861C18.0654 12.5949 18.3774 11.8374 19.0012 11.2135C19.625 10.5897 20.3826 10.2778 21.2738 10.2778C21.7923 10.2778 22.2784 10.3871 22.7321 10.6059C23.1858 10.8246 23.5747 11.1203 23.8988 11.493C24.2228 11.1203 24.6117 10.8246 25.0654 10.6059C25.5191 10.3871 26.0052 10.2778 26.5238 10.2778C27.415 10.2778 28.1725 10.5897 28.7963 11.2135C29.4202 11.8374 29.7321 12.5949 29.7321 13.4861C29.7321 14.1828 29.562 14.8269 29.2217 15.4184C28.8814 16.0098 28.4601 16.5486 27.9578 17.0347L23.8988 20.9722ZM23.8988 18.25L26.5481 15.6493C26.8559 15.3414 27.1395 15.0133 27.3988 14.6649C27.658 14.3165 27.7877 13.9236 27.7877 13.4861C27.7877 13.1296 27.6661 12.8298 27.4231 12.5868C27.18 12.3437 26.8802 12.2222 26.5238 12.2222C26.2969 12.2222 26.0822 12.2668 25.8797 12.3559C25.6771 12.445 25.5029 12.5787 25.3571 12.7569L23.8988 14.5069L22.4404 12.7569C22.2946 12.5787 22.1204 12.445 21.9179 12.3559C21.7153 12.2668 21.5006 12.2222 21.2738 12.2222C20.9173 12.2222 20.6175 12.3437 20.3745 12.5868C20.1314 12.8298 20.0099 13.1296 20.0099 13.4861C20.0099 13.9236 20.1395 14.3165 20.3988 14.6649C20.658 15.0133 20.9416 15.3414 21.2495 15.6493L23.8988 18.25ZM15.1488 26.3194L21.9057 28.1666L27.6904 26.368C27.6094 26.2222 27.4919 26.0966 27.338 25.9913C27.1841 25.886 27.0099 25.8333 26.8154 25.8333H21.9057C21.4682 25.8333 21.1198 25.8171 20.8606 25.7847C20.6013 25.7523 20.3339 25.6875 20.0585 25.5903L17.7981 24.8368L18.3328 22.941L20.3015 23.5972C20.577 23.6782 20.9011 23.743 21.2738 23.7916C21.6464 23.8403 22.1974 23.8727 22.9265 23.8889C22.9265 23.7106 22.8739 23.5405 22.7686 23.3785C22.6632 23.2164 22.5377 23.1111 22.3918 23.0625L16.7043 20.9722H15.1488V26.3194ZM9.31543 29.7222V19.0278H16.7043C16.8177 19.0278 16.9312 19.0399 17.0446 19.0642C17.158 19.0885 17.2633 19.1169 17.3606 19.1493L23.0724 21.2639C23.6071 21.4583 24.0405 21.7986 24.3727 22.2847C24.7049 22.7708 24.871 23.3055 24.871 23.8889H26.8154C27.6256 23.8889 28.3143 24.1562 28.8814 24.691C29.4485 25.2257 29.7321 25.9305 29.7321 26.8055V27.7778L21.9543 30.2083L15.1488 28.3125V29.7222H9.31543ZM11.2599 27.7778H13.2043V20.9722H11.2599V27.7778Z" fill="#D9E1E2"/>
</svg>
