<svg width="44" height="44" viewBox="0 0 44 44" fill="none" xmlns="http://www.w3.org/2000/svg">
<path d="M39.6222 0H10.1765V35.2414L4.375 40.5791L5.94888 42.2913L6.73582 43.1468L7.52392 43.9988L13.4998 38.5019H39.6245L39.6222 0ZM37.2974 36.1794H16.0245L17.0788 35.2077L16.2907 34.3545L18.5771 32.2517C20.2939 33.7082 22.4827 34.5312 24.7529 34.5312C27.1497 34.5312 29.4431 33.635 31.21 32.0111C35.0807 28.4495 35.3353 22.3993 31.7726 18.5297C29.9697 16.5711 27.4113 15.4505 24.7494 15.4505C22.3525 15.4505 20.058 16.3467 18.2923 17.9694C14.7098 21.2648 14.2332 26.6827 17.0009 30.5395L14.7156 32.6434L13.9275 31.7891L12.499 33.1037V2.32478H37.2962L37.2974 36.1794ZM19.4442 29.8746C16.7521 26.9466 16.9428 22.3749 19.8685 19.6793C21.2041 18.4483 22.9396 17.7718 24.7517 17.7718C26.7638 17.7718 28.7004 18.6203 30.0627 20.1012C32.7536 23.0316 32.563 27.601 29.6361 30.2966C28.3028 31.5275 26.5685 32.2041 24.7552 32.2041C22.7431 32.2064 20.8066 31.3578 19.4442 29.8746ZM33.0361 8.13674H16.472V5.81196H33.0361V8.13674ZM33.0361 14.2393H16.472V11.9145H33.0361V14.2393Z" fill="#003A40" fill-opacity="0.8"/>
</svg>
