<svg width="41" height="40" viewBox="0 0 41 40" fill="none" xmlns="http://www.w3.org/2000/svg">
<rect width="40.02" height="40" rx="20" fill="#003A40"/>
<path d="M18.9894 23.4514L24.4824 17.9583L23.097 16.5729L18.9894 20.6806L16.9477 18.6389L15.5623 20.0243L18.9894 23.4514ZM20.0102 29.7222C17.7579 29.1551 15.8985 27.8629 14.4321 25.8455C12.9656 23.8281 12.2324 21.588 12.2324 19.125V13.1945L20.0102 10.2778L27.788 13.1945V19.125C27.788 21.588 27.0548 23.8281 25.5883 25.8455C24.1219 27.8629 22.2625 29.1551 20.0102 29.7222ZM20.0102 27.6806C21.6954 27.1458 23.0889 26.0764 24.1908 24.4722C25.2926 22.8681 25.8435 21.0857 25.8435 19.125V14.5313L20.0102 12.3438L14.1769 14.5313V19.125C14.1769 21.0857 14.7278 22.8681 15.8296 24.4722C16.9315 26.0764 18.325 27.1458 20.0102 27.6806Z" fill="#D9E1E2"/>
</svg>
