<svg width="15" height="16" viewBox="0 0 15 16" fill="none" xmlns="http://www.w3.org/2000/svg">
<path d="M7.01002 13.5555C6.25076 13.5555 5.53317 13.4097 4.85725 13.118C4.18132 12.8264 3.59104 12.4282 3.08641 11.9236C2.58178 11.419 2.18363 10.8287 1.89197 10.1528C1.6003 9.47684 1.45447 8.75925 1.45447 7.99999C1.45447 7.23147 1.6003 6.51156 1.89197 5.84026C2.18363 5.16897 2.58178 4.581 3.08641 4.07638C3.59104 3.57174 4.18132 3.1736 4.85725 2.88193C5.53317 2.59026 6.25076 2.44443 7.01002 2.44443C7.77854 2.44443 8.49845 2.59026 9.16975 2.88193C9.84104 3.1736 10.429 3.57174 10.9336 4.07638C11.4383 4.581 11.8364 5.16897 12.1281 5.84026C12.4197 6.51156 12.5656 7.23147 12.5656 7.99999C12.5656 8.75925 12.4197 9.47684 12.1281 10.1528C11.8364 10.8287 11.4383 11.419 10.9336 11.9236C10.429 12.4282 9.84104 12.8264 9.16975 13.118C8.49845 13.4097 7.77854 13.5555 7.01002 13.5555ZM7.01002 12.4167C7.25076 12.0833 7.4591 11.7361 7.63502 11.375C7.81095 11.0139 7.95447 10.6296 8.06558 10.2222H5.95447C6.06558 10.6296 6.2091 11.0139 6.38502 11.375C6.56095 11.7361 6.76928 12.0833 7.01002 12.4167ZM5.56558 12.1944C5.39891 11.8889 5.25308 11.5717 5.12808 11.243C5.00308 10.9143 4.89891 10.5741 4.81558 10.2222H3.17669C3.44521 10.6852 3.78086 11.0879 4.18363 11.4305C4.58641 11.7731 5.04706 12.0278 5.56558 12.1944ZM8.45447 12.1944C8.97299 12.0278 9.43364 11.7731 9.83641 11.4305C10.2392 11.0879 10.5748 10.6852 10.8434 10.2222H9.20447C9.12114 10.5741 9.01697 10.9143 8.89197 11.243C8.76697 11.5717 8.62113 11.8889 8.45447 12.1944ZM2.70447 9.1111H4.59336C4.56558 8.92591 4.54475 8.74304 4.53086 8.56249C4.51697 8.38193 4.51002 8.19443 4.51002 7.99999C4.51002 7.80554 4.51697 7.61804 4.53086 7.43749C4.54475 7.25693 4.56558 7.07406 4.59336 6.88888H2.70447C2.65817 7.07406 2.62345 7.25693 2.6003 7.43749C2.57715 7.61804 2.56558 7.80554 2.56558 7.99999C2.56558 8.19443 2.57715 8.38193 2.6003 8.56249C2.62345 8.74304 2.65817 8.92591 2.70447 9.1111ZM5.70447 9.1111H8.31558C8.34336 8.92591 8.36419 8.74304 8.37808 8.56249C8.39197 8.38193 8.39891 8.19443 8.39891 7.99999C8.39891 7.80554 8.39197 7.61804 8.37808 7.43749C8.36419 7.25693 8.34336 7.07406 8.31558 6.88888H5.70447C5.67669 7.07406 5.65586 7.25693 5.64197 7.43749C5.62808 7.61804 5.62113 7.80554 5.62113 7.99999C5.62113 8.19443 5.62808 8.38193 5.64197 8.56249C5.65586 8.74304 5.67669 8.92591 5.70447 9.1111ZM9.42669 9.1111H11.3156C11.3619 8.92591 11.3966 8.74304 11.4197 8.56249C11.4429 8.38193 11.4545 8.19443 11.4545 7.99999C11.4545 7.80554 11.4429 7.61804 11.4197 7.43749C11.3966 7.25693 11.3619 7.07406 11.3156 6.88888H9.42669C9.45447 7.07406 9.4753 7.25693 9.48919 7.43749C9.50308 7.61804 9.51002 7.80554 9.51002 7.99999C9.51002 8.19443 9.50308 8.38193 9.48919 8.56249C9.4753 8.74304 9.45447 8.92591 9.42669 9.1111ZM9.20447 5.77776H10.8434C10.5748 5.3148 10.2392 4.91202 9.83641 4.56943C9.43364 4.22684 8.97299 3.97221 8.45447 3.80554C8.62113 4.1111 8.76697 4.42823 8.89197 4.75693C9.01697 5.08563 9.12114 5.42591 9.20447 5.77776ZM5.95447 5.77776H8.06558C7.95447 5.37036 7.81095 4.9861 7.63502 4.62499C7.4591 4.26388 7.25076 3.91665 7.01002 3.58332C6.76928 3.91665 6.56095 4.26388 6.38502 4.62499C6.2091 4.9861 6.06558 5.37036 5.95447 5.77776ZM3.17669 5.77776H4.81558C4.89891 5.42591 5.00308 5.08563 5.12808 4.75693C5.25308 4.42823 5.39891 4.1111 5.56558 3.80554C5.04706 3.97221 4.58641 4.22684 4.18363 4.56943C3.78086 4.91202 3.44521 5.3148 3.17669 5.77776Z" fill="#003A40"/>
</svg>
