<svg id="Layer_1" data-name="Layer 1" xmlns="http://www.w3.org/2000/svg" viewBox="0 0 666.14 226.95">
  <defs>
    <style>
      .cls-1, .cls-2 {
        fill: #003A40;
      }

      .cls-2 {
        stroke: #003A40;
        stroke-miterlimit: 10;
        stroke-width: .5px;
      }

      .cls-3 {
        fill: #003A40;
      }
    </style>
  </defs>
  <path class="cls-3" d="M212.6,41.02h-42.52v3h41.01l-.09,11.04c0,34.11-27.79,61.87-61.95,61.87-32.29,0-58.88-24.8-61.69-56.34l.12-19.57h-45.52l-.87,144.73h86.49v-3h-40.95l.65-107.69c8.46,26.01,32.95,44.87,61.78,44.87s53.86-19.26,62.06-45.7v111.52h45.52V41.02h-44.02ZM83.61,182.75h-39.52l.84-138.73h39.05l.11,11.04c0,1.9.1,3.77.26,5.63l-.74,122.07ZM253.62,182.75h-39.52V44.02h39.52v138.73Z"/>
  <g>
    <path class="cls-1" d="M340.94,113.51h-8.22v-28.34l-13.62,22.56-13.08-22.77v28.55h-8.22v-42.46h9.46l12,21.07,12.54-21.07h9.14v42.46Z"/>
    <path class="cls-1" d="M385.06,113.51h-28.54v-42.41h28.54v6.79h-20.33v10.14h20.06v6.63h-20.06v11.68h20.33v7.17Z"/>
    <path class="cls-1" d="M437.44,92.28c0,2.94-.5,5.69-1.51,8.25-1.01,2.57-2.42,4.81-4.22,6.74-1.8,1.93-3.96,3.45-6.46,4.56s-5.24,1.67-8.19,1.67h-18.06v-42.46h18.06c2.96,0,5.69.57,8.19,1.7,2.5,1.13,4.66,2.65,6.46,4.56,1.8,1.91,3.21,4.16,4.22,6.74,1.01,2.58,1.51,5.33,1.51,8.23ZM428.95,92.07c.04-1.98-.27-3.86-.92-5.63-.65-1.77-1.59-3.32-2.81-4.64s-2.73-2.37-4.51-3.13c-1.78-.76-3.79-1.14-6.03-1.14h-7.3v28.98h7.3c2.2,0,4.17-.36,5.92-1.09,1.75-.72,3.23-1.73,4.46-3.03,1.22-1.29,2.17-2.81,2.84-4.56.67-1.75,1.02-3.67,1.05-5.76Z"/>
    <path class="cls-1" d="M494.53,113.51h-8.22v-28.34l-13.62,22.56-13.08-22.77v28.55h-8.22v-42.46h9.46l12,21.07,12.54-21.07h9.14v42.46Z"/>
    <path class="cls-1" d="M518.48,113.51h-8.38v-42.41h8.38v42.41Z"/>
    <path class="cls-1" d="M570,113.51h-8.22l-19.52-29.78v29.78h-8.22v-42.46h9.41l18.33,27.71v-27.71h8.22v42.46Z"/>
    <path class="cls-1" d="M624,92.28c0,2.94-.5,5.69-1.51,8.25-1.01,2.57-2.42,4.81-4.22,6.74-1.8,1.93-3.96,3.45-6.46,4.56s-5.24,1.67-8.19,1.67h-18.06v-42.46h18.06c2.96,0,5.69.57,8.19,1.7,2.5,1.13,4.66,2.65,6.46,4.56,1.8,1.91,3.21,4.16,4.22,6.74,1.01,2.58,1.51,5.33,1.51,8.23ZM615.51,92.07c.04-1.98-.27-3.86-.92-5.63-.65-1.77-1.59-3.32-2.81-4.64s-2.73-2.37-4.51-3.13c-1.78-.76-3.79-1.14-6.03-1.14h-7.3v28.98h7.3c2.2,0,4.17-.36,5.92-1.09,1.75-.72,3.23-1.73,4.46-3.03,1.22-1.29,2.17-2.81,2.84-4.56.67-1.75,1.02-3.67,1.05-5.76Z"/>
  </g>
  <g>
    <path class="cls-2" d="M304.55,156.13h-6.93v-14.04h.72v13.36h6.21v.68Z"/>
    <path class="cls-2" d="M315.03,142.09v14.04h-.72v-14.04h.72Z"/>
    <path class="cls-2" d="M334.77,142.09v14.04h-.81l-7.38-12.96.05,3.42v9.54h-.68v-14.04h.81l7.38,12.96-.05-3.42v-9.54h.68Z"/>
    <path class="cls-2" d="M350.25,156.31c-1.66,0-2.9-.54-3.72-1.63-.82-1.09-1.23-2.82-1.23-5.21v-.72c0-2.38.4-4.11,1.21-5.2.8-1.09,1.99-1.64,3.56-1.64,2.82,0,4.23,1.59,4.23,4.77v.45h-.76c0-1.61-.27-2.77-.81-3.47-.54-.71-1.4-1.06-2.57-1.06h-.11c-1.31,0-2.3.49-2.98,1.48-.68.98-1.02,2.54-1.02,4.68v.72c0,2.16.34,3.73,1.03,4.7.68.97,1.73,1.46,3.15,1.46h.11c.74,0,1.4-.12,1.95-.37.56-.25.99-.55,1.29-.91v-4.21h-2.61v-.68h3.33v5.26c-.91,1.07-2.26,1.6-4.05,1.6Z"/>
    <path class="cls-2" d="M372.52,155.32c-.72.67-1.8,1-3.24,1s-2.52-.33-3.24-1c-.72-.67-1.08-1.83-1.08-3.5v-9.72h.72v9.63c0,1.48.29,2.5.87,3.06.58.56,1.49.85,2.73.85s2.15-.28,2.73-.85c.58-.56.87-1.58.87-3.06v-9.63h.72v9.72c0,1.67-.36,2.83-1.08,3.5Z"/>
    <path class="cls-2" d="M385.15,142.09v14.04h-.72v-14.04h.72Z"/>
    <path class="cls-2" d="M399.81,149.2c-1.43-.19-2.47-.6-3.11-1.23-.65-.63-.97-1.39-.97-2.28v-.18c0-1.1.39-1.98,1.17-2.63.78-.65,1.8-.97,3.06-.97,2.82,0,4.23,1.47,4.23,4.41v.45h-.72c0-1.46-.28-2.53-.83-3.19-.55-.66-1.43-.99-2.63-.99h-.11c-.98,0-1.8.25-2.45.75-.65.5-.97,1.16-.97,1.99v.18c0,.86.28,1.54.84,2.03.56.49,1.5.83,2.83,1.01,1.48.2,2.55.62,3.21,1.24s1,1.45,1,2.48v.18c0,1.19-.4,2.13-1.21,2.82-.8.69-1.87,1.04-3.2,1.04-1.4,0-2.49-.4-3.26-1.21-.77-.8-1.15-1.9-1.15-3.29v-.18h.72c0,1.31.33,2.3,1,2.98.67.68,1.54,1.02,2.64,1.02h.11c1.08,0,1.95-.27,2.61-.81.66-.54.99-1.3.99-2.27v-.18c0-.94-.3-1.65-.91-2.15-.61-.5-1.57-.84-2.89-1.02Z"/>
    <path class="cls-2" d="M418.08,142.78v13.36h-.72v-13.36h-3.69v-.68h8.1v.68h-3.69Z"/>
    <path class="cls-2" d="M432.42,142.09v14.04h-.72v-14.04h.72Z"/>
    <path class="cls-2" d="M443.8,149.47c0,2.16.31,3.73.94,4.7.62.97,1.58,1.46,2.88,1.46h.11c1.16,0,2.02-.33,2.56-1s.81-1.67.81-3h.76v.18c0,1.43-.35,2.54-1.05,3.32-.7.79-1.75,1.18-3.16,1.18-1.56,0-2.72-.54-3.47-1.63-.75-1.09-1.12-2.82-1.12-5.21v-.72c0-2.39.38-4.12,1.12-5.21s1.91-1.63,3.47-1.63c2.81,0,4.21,1.59,4.21,4.77v.45h-.76c0-1.61-.27-2.77-.8-3.47-.53-.71-1.39-1.06-2.56-1.06h-.11c-1.28,0-2.24.49-2.87,1.46-.63.97-.94,2.54-.94,4.7v.72Z"/>
    <path class="cls-2" d="M477.51,149.2c-1.43-.19-2.47-.6-3.11-1.23-.65-.63-.97-1.39-.97-2.28v-.18c0-1.1.39-1.98,1.17-2.63.78-.65,1.8-.97,3.06-.97,2.82,0,4.23,1.47,4.23,4.41v.45h-.72c0-1.46-.28-2.53-.83-3.19-.55-.66-1.43-.99-2.63-.99h-.11c-.98,0-1.8.25-2.45.75-.65.5-.97,1.16-.97,1.99v.18c0,.86.28,1.54.84,2.03.56.49,1.5.83,2.83,1.01,1.48.2,2.55.62,3.21,1.24s1,1.45,1,2.48v.18c0,1.19-.4,2.13-1.21,2.82-.8.69-1.87,1.04-3.2,1.04-1.4,0-2.49-.4-3.26-1.21-.77-.8-1.15-1.9-1.15-3.29v-.18h.72c0,1.31.33,2.3,1,2.98.67.68,1.54,1.02,2.64,1.02h.11c1.08,0,1.95-.27,2.61-.81.66-.54.99-1.3.99-2.27v-.18c0-.94-.3-1.65-.91-2.15-.61-.5-1.57-.84-2.89-1.02Z"/>
    <path class="cls-2" d="M500.17,154.68c-.76,1.09-1.92,1.63-3.48,1.63s-2.72-.54-3.48-1.63c-.76-1.09-1.14-2.82-1.14-5.21v-.72c0-2.39.38-4.12,1.14-5.21s1.92-1.63,3.48-1.63,2.72.54,3.48,1.63c.76,1.09,1.14,2.82,1.14,5.21v.72c0,2.39-.38,4.13-1.14,5.21ZM496.63,155.63h.11c1.3,0,2.26-.48,2.88-1.45.62-.97.94-2.53.94-4.71v-.72c0-2.17-.31-3.74-.94-4.71s-1.58-1.45-2.88-1.45h-.11c-1.3,0-2.26.48-2.88,1.45-.62.97-.94,2.54-.94,4.71v.72c0,2.17.31,3.74.94,4.71.62.97,1.58,1.45,2.88,1.45Z"/>
    <path class="cls-2" d="M518.77,156.13h-6.93v-14.04h.72v13.36h6.21v.68Z"/>
    <path class="cls-2" d="M535.6,155.32c-.72.67-1.8,1-3.24,1s-2.52-.33-3.24-1c-.72-.67-1.08-1.83-1.08-3.5v-9.72h.72v9.63c0,1.48.29,2.5.87,3.06.58.56,1.49.85,2.73.85s2.15-.28,2.73-.85c.58-.56.87-1.58.87-3.06v-9.63h.72v9.72c0,1.67-.36,2.83-1.08,3.5Z"/>
    <path class="cls-2" d="M550.84,142.78v13.36h-.72v-13.36h-3.69v-.68h8.1v.68h-3.69Z"/>
    <path class="cls-2" d="M565.19,142.09v14.04h-.72v-14.04h.72Z"/>
    <path class="cls-2" d="M583.92,154.68c-.76,1.09-1.92,1.63-3.48,1.63s-2.72-.54-3.48-1.63c-.76-1.09-1.14-2.82-1.14-5.21v-.72c0-2.39.38-4.12,1.14-5.21s1.92-1.63,3.48-1.63,2.72.54,3.48,1.63c.76,1.09,1.14,2.82,1.14,5.21v.72c0,2.39-.38,4.13-1.14,5.21ZM580.38,155.63h.11c1.3,0,2.26-.48,2.88-1.45.62-.97.94-2.53.94-4.71v-.72c0-2.17-.31-3.74-.94-4.71s-1.58-1.45-2.88-1.45h-.11c-1.3,0-2.26.48-2.88,1.45-.62.97-.94,2.54-.94,4.71v.72c0,2.17.31,3.74.94,4.71.62.97,1.58,1.45,2.88,1.45Z"/>
    <path class="cls-2" d="M604.41,142.09v14.04h-.81l-7.38-12.96.05,3.42v9.54h-.68v-14.04h.81l7.38,12.96-.05-3.42v-9.54h.68Z"/>
    <path class="cls-2" d="M618.97,149.2c-1.43-.19-2.47-.6-3.11-1.23-.65-.63-.97-1.39-.97-2.28v-.18c0-1.1.39-1.98,1.17-2.63.78-.65,1.8-.97,3.06-.97,2.82,0,4.23,1.47,4.23,4.41v.45h-.72c0-1.46-.28-2.53-.83-3.19-.55-.66-1.43-.99-2.63-.99h-.11c-.98,0-1.8.25-2.45.75-.65.5-.97,1.16-.97,1.99v.18c0,.86.28,1.54.84,2.03.56.49,1.5.83,2.83,1.01,1.48.2,2.55.62,3.21,1.24s1,1.45,1,2.48v.18c0,1.19-.4,2.13-1.21,2.82-.8.69-1.87,1.04-3.2,1.04-1.4,0-2.49-.4-3.26-1.21-.77-.8-1.15-1.9-1.15-3.29v-.18h.72c0,1.31.33,2.3,1,2.98.67.68,1.54,1.02,2.64,1.02h.11c1.08,0,1.95-.27,2.61-.81.66-.54.99-1.3.99-2.27v-.18c0-.94-.3-1.65-.91-2.15-.61-.5-1.57-.84-2.89-1.02Z"/>
  </g>
</svg>