<svg width="61" height="61" viewBox="0 0 61 61" fill="none" xmlns="http://www.w3.org/2000/svg">
<path d="M26.0964 27.5057C26.4531 27.5057 26.8037 27.5338 27.1457 27.5872L32.5206 22.2187C30.604 21.1961 28.4168 20.6152 26.0966 20.6152C18.5541 20.6152 12.4176 26.7444 12.4176 34.2781C12.4176 41.8119 18.5541 47.9411 26.0966 47.9411C33.639 47.9411 39.7754 41.8119 39.7754 34.2781C39.7754 31.9605 39.194 29.7761 38.17 27.8618L32.7954 33.2304C32.8487 33.5719 32.8768 33.9219 32.8768 34.2783C32.8768 38.0126 29.8352 41.0507 26.0967 41.0507C22.358 41.0507 19.3164 38.0126 19.3164 34.2783C19.3164 30.544 22.3577 27.5057 26.0964 27.5057Z" fill="#003A40"/>
<path d="M42.1944 23.8423C44.1538 26.8476 45.2941 30.4323 45.2941 34.2782C45.2941 44.8516 36.6824 53.4536 26.0967 53.4536C15.5109 53.4536 6.89873 44.8516 6.89873 34.2783C6.89873 23.705 15.5108 15.1029 26.0965 15.1029C29.9473 15.1029 33.536 16.2421 36.5449 18.1994L41.4992 13.2509C37.1792 10.0852 31.853 8.2124 26.0967 8.2124C11.7069 8.2124 0.00012207 19.9056 0.00012207 34.2783C0.00012207 48.6511 11.7069 60.3444 26.0967 60.3444C40.4863 60.3444 52.1928 48.6511 52.1928 34.2783C52.1928 28.5286 50.3182 23.2086 47.1488 18.8939L42.1944 23.8423Z" fill="#003A40"/>
<path d="M60.3475 8.21833C60.1849 7.70482 59.7491 7.32495 59.218 7.23266L54.0683 6.33928L53.174 1.19548C53.0815 0.664996 52.701 0.229841 52.1872 0.067474C51.6734 -0.0953283 51.1119 0.0416462 50.7306 0.422534L46.7484 4.39987C46.4778 4.67034 46.3257 5.0373 46.3254 5.41978L46.3257 11.3538L24.8111 32.8425C24.0592 33.5937 24.0592 34.811 24.8111 35.5622C25.5633 36.313 26.7822 36.3133 27.5341 35.5622L49.0479 14.0733H54.9889C55.3717 14.0733 55.7391 13.9213 56.0097 13.6509L59.9919 9.67325C60.3734 9.29265 60.5103 8.73155 60.3475 8.21833Z" fill="#003A40"/>
</svg>
