<svg width="67" height="60" viewBox="0 0 67 60" fill="none" xmlns="http://www.w3.org/2000/svg">
<path d="M40.1667 30.5C40.1667 29.1485 39.7757 27.8273 39.0431 26.7036C38.3106 25.5799 37.2694 24.704 36.0512 24.1868C34.833 23.6696 33.4926 23.5343 32.1994 23.798C30.9062 24.0616 29.7183 24.7124 28.786 25.6681C27.8536 26.6238 27.2187 27.8413 26.9614 29.1669C26.7042 30.4924 26.8362 31.8664 27.3408 33.115C27.8454 34.3636 28.6999 35.4309 29.7962 36.1817C30.8925 36.9326 32.1815 37.3333 33.5 37.3333C35.2681 37.3333 36.9638 36.6134 38.214 35.3319C39.4643 34.0504 40.1667 32.3123 40.1667 30.5ZM33.5 10C53.5 10 63.5 30.5 63.5 30.5C63.5 30.5 53.5 51 33.5 51C13.5 51 3.5 30.5 3.5 30.5C3.5 30.5 13.5 10 33.5 10Z" stroke="#003A40" stroke-width="7" stroke-linecap="round" stroke-linejoin="round"/>
</svg>
