<svg width="114" height="114" viewBox="0 0 114 114" fill="none" xmlns="http://www.w3.org/2000/svg">
<rect x="1" y="1" width="112" height="112" rx="56" stroke="#003A40" stroke-width="2"/>
<path d="M72.8335 72.0002H41.1672C38.871 72.0002 37.001 70.1302 37.001 67.834V46.1677C37.001 43.8715 38.871 42.0015 41.1672 42.0015H72.8335C75.1297 42.0015 76.9997 43.8715 76.9997 46.1677V67.834C76.9997 70.1302 75.1297 72.0002 72.8335 72.0002ZM41.166 43.6665C39.7872 43.6665 38.666 44.7877 38.666 46.1665V67.8327C38.666 69.2115 39.7872 70.3327 41.166 70.3327H72.8322C74.211 70.3327 75.3322 69.2115 75.3322 67.8327V46.1665C75.3322 44.7877 74.211 43.6665 72.8322 43.6665H41.166ZM56.9997 62.0502C55.3097 62.0502 53.7297 61.3415 52.5497 60.0615L38.2897 44.4702C37.9797 44.1302 38.0035 43.604 38.3435 43.2915C38.6822 42.9815 39.2097 43.0052 39.5222 43.3452L53.781 58.9352C55.4972 60.8015 58.5047 60.804 60.2247 58.934L74.411 43.4127C74.7247 43.0715 75.2497 43.0515 75.5897 43.359C75.931 43.6702 75.9547 44.1952 75.6447 44.5377L61.4547 60.059C60.271 61.3427 58.6897 62.0502 56.9997 62.0502ZM38.8635 70.9715C38.6385 70.9715 38.4122 70.8802 38.2485 70.7002C37.9372 70.3602 37.9622 69.8315 38.3022 69.5215L51.356 57.6015C51.696 57.2915 52.2247 57.3127 52.5347 57.6552C52.846 57.9952 52.821 58.524 52.481 58.8315L39.4272 70.7515C39.266 70.8977 39.0635 70.9715 38.8635 70.9715ZM75.0697 70.904C74.8685 70.904 74.6697 70.8327 74.5085 70.6852L61.5235 58.834C61.1835 58.524 61.1585 57.9977 61.4697 57.6577C61.7835 57.3165 62.3097 57.2927 62.6485 57.604L75.6335 69.4552C75.9722 69.769 75.9985 70.294 75.6847 70.6315C75.5185 70.8115 75.2947 70.904 75.0697 70.904Z" fill="#003A40"/>
</svg>
