<svg width="114" height="114" viewBox="0 0 114 114" fill="none" xmlns="http://www.w3.org/2000/svg">
<rect x="1" y="1" width="112" height="112" rx="56" stroke="#003A40" stroke-width="2"/>
<path d="M57.3954 54.4987C54.5948 54.4987 52.315 52.255 52.315 49.4987C52.315 46.7425 54.5948 44.4988 57.3954 44.4988C60.196 44.4988 62.4758 46.7425 62.4758 49.4987C62.4758 52.255 60.196 54.4987 57.3954 54.4987ZM57.3954 46.1663C55.5271 46.1663 54.008 47.6613 54.008 49.5C54.008 51.3387 55.5271 52.8337 57.3954 52.8337C59.265 52.8337 60.7828 51.3387 60.7828 49.5C60.7828 47.6613 59.265 46.1663 57.3954 46.1663ZM57.3954 77.2763C56.928 77.2763 56.5482 76.9013 56.5482 76.4425C56.514 75.1775 52.2235 66.0813 48.3891 62.1963C46.0737 59.8525 43 56.1612 43 51.1662C43 43.355 49.4572 37 57.3941 37C65.3336 37 71.7883 43.355 71.7883 51.1662C71.7883 55.4275 69.6354 59.4613 65.5533 62.83C60.7866 66.7713 58.2388 75.2113 58.2388 76.4437V76.4463C58.2388 76.4475 58.2388 76.4487 58.2388 76.4487V76.4525C58.2388 76.4538 58.2388 76.455 58.2388 76.455V76.46C58.2388 76.4638 58.2388 76.465 58.2388 76.465V76.4688C58.2388 76.4688 58.2388 76.4688 58.2388 76.4725V76.4788C58.2388 76.4788 58.2388 76.4788 58.2388 76.4825C58.2184 76.9225 57.8488 77.2763 57.3954 77.2763ZM57.3954 38.6663C50.3908 38.6663 44.6943 44.2725 44.6943 51.1662C44.6943 54.5062 46.254 57.6413 49.602 61.035C52.4369 63.9088 55.6693 69.6637 57.2582 73.3613C58.3658 69.9163 60.7688 64.615 64.4674 61.555C67.0381 59.4338 70.0965 55.91 70.0965 51.1687C70.0965 44.2738 64.4001 38.6663 57.3954 38.6663Z" fill="#003A40"/>
</svg>
