<?xml version="1.0" encoding="UTF-8"?>
<svg id="Layer_1" data-name="Layer 1" xmlns="http://www.w3.org/2000/svg" viewBox="0 0 199.91 138.45">
  <defs>
    <style>
      .cls-1 {
        fill: #003A40;
      }
    </style>
  </defs>
  <path class="cls-1" d="M145.71,17.29h-30.51v2.15h29.43l-.07,7.92c0,24.48-19.94,44.4-44.46,44.4-23.17,0-42.25-17.8-44.27-40.43l.08-14.04H23.24l-.63,103.86h62.07v-2.15h-29.39l.47-77.28c6.07,18.66,23.65,32.2,44.34,32.2s38.65-13.82,44.54-32.8v80.03h32.67V17.29h-31.59ZM53.14,119h-28.36l.6-99.56h28.02l.08,7.92c0,1.36.07,2.71.19,4.04l-.53,87.6ZM175.14,119h-28.36V19.45h28.36v99.56Z"/>
</svg>